<mxfile host="65bd71144e">
    <diagram id="Q8ZCVBfkGdzVq4fk389N" name="Page-1">
        <mxGraphModel dx="2760" dy="1547" grid="1" gridSize="10" guides="1" tooltips="1" connect="1" arrows="1" fold="1" page="1" pageScale="1" pageWidth="827" pageHeight="1169" math="1" shadow="0">
            <root>
                <mxCell id="0"/>
                <mxCell id="1" parent="0"/>
                <mxCell id="18" value="list: List" style="shape=umlLifeline;perimeter=lifelinePerimeter;whiteSpace=wrap;html=1;container=1;collapsible=0;recursiveResize=0;outlineConnect=0;fontFamily=Alegreya;" parent="1" vertex="1">
                    <mxGeometry x="235" y="380" width="95" height="304" as="geometry"/>
                </mxCell>
                <mxCell id="37" value="" style="html=1;points=[];perimeter=orthogonalPerimeter;fontFamily=Alegreya;" parent="18" vertex="1">
                    <mxGeometry x="42.5" y="74" width="10" height="180" as="geometry"/>
                </mxCell>
                <mxCell id="19" value="node1: Node" style="shape=umlLifeline;perimeter=lifelinePerimeter;whiteSpace=wrap;html=1;container=1;collapsible=0;recursiveResize=0;outlineConnect=0;fontFamily=Alegreya;" parent="1" vertex="1">
                    <mxGeometry x="360" y="380" width="100" height="300" as="geometry"/>
                </mxCell>
                <mxCell id="59" value="" style="html=1;points=[];perimeter=orthogonalPerimeter;fontFamily=Alegreya;" parent="19" vertex="1">
                    <mxGeometry x="45" y="90" width="10" height="150" as="geometry"/>
                </mxCell>
                <mxCell id="20" value="node2: Node" style="shape=umlLifeline;perimeter=lifelinePerimeter;whiteSpace=wrap;html=1;container=1;collapsible=0;recursiveResize=0;outlineConnect=0;fontFamily=Alegreya;" parent="1" vertex="1">
                    <mxGeometry x="499" y="380" width="100" height="300" as="geometry"/>
                </mxCell>
                <mxCell id="62" value="" style="html=1;points=[];perimeter=orthogonalPerimeter;fontFamily=Alegreya;" parent="20" vertex="1">
                    <mxGeometry x="45" y="110" width="10" height="110" as="geometry"/>
                </mxCell>
                <mxCell id="21" value="node3: Node" style="shape=umlLifeline;perimeter=lifelinePerimeter;whiteSpace=wrap;html=1;container=1;collapsible=0;recursiveResize=0;outlineConnect=0;fontFamily=Alegreya;" parent="1" vertex="1">
                    <mxGeometry x="630" y="380" width="100" height="300" as="geometry"/>
                </mxCell>
                <mxCell id="65" value="" style="html=1;points=[];perimeter=orthogonalPerimeter;fontFamily=Alegreya;" parent="21" vertex="1">
                    <mxGeometry x="45" y="130" width="10" height="70" as="geometry"/>
                </mxCell>
                <mxCell id="24" value="" style="shape=umlLifeline;participant=umlActor;perimeter=lifelinePerimeter;whiteSpace=wrap;html=1;container=1;collapsible=0;recursiveResize=0;verticalAlign=top;spacingTop=36;outlineConnect=0;" parent="1" vertex="1">
                    <mxGeometry x="130" y="380" width="20" height="300" as="geometry"/>
                </mxCell>
                <mxCell id="43" value="" style="html=1;points=[];perimeter=orthogonalPerimeter;" parent="24" vertex="1">
                    <mxGeometry x="5" y="60" width="10" height="210" as="geometry"/>
                </mxCell>
                <mxCell id="29" value="" style="html=1;points=[];perimeter=orthogonalPerimeter;fontFamily=Alegreya;" parent="1" vertex="1">
                    <mxGeometry x="569" y="210" width="10" height="80" as="geometry"/>
                </mxCell>
                <mxCell id="30" value="dispatch" style="html=1;verticalAlign=bottom;endArrow=block;entryX=0;entryY=0;fontFamily=Alegreya;" parent="1" target="29" edge="1">
                    <mxGeometry relative="1" as="geometry">
                        <mxPoint x="499" y="210" as="sourcePoint"/>
                    </mxGeometry>
                </mxCell>
                <mxCell id="31" value="return" style="html=1;verticalAlign=bottom;endArrow=open;dashed=1;endSize=8;exitX=0;exitY=0.95;fontFamily=Alegreya;" parent="1" source="29" edge="1">
                    <mxGeometry relative="1" as="geometry">
                        <mxPoint x="499" y="286" as="targetPoint"/>
                    </mxGeometry>
                </mxCell>
                <mxCell id="32" value="" style="shape=umlLifeline;participant=umlActor;perimeter=lifelinePerimeter;whiteSpace=wrap;html=1;container=1;collapsible=0;recursiveResize=0;verticalAlign=top;spacingTop=36;outlineConnect=0;" parent="1" vertex="1">
                    <mxGeometry x="90" y="220" width="20" height="96" as="geometry"/>
                </mxCell>
                <mxCell id="33" value="object: Class" style="shape=umlLifeline;perimeter=lifelinePerimeter;whiteSpace=wrap;html=1;container=1;collapsible=0;recursiveResize=0;outlineConnect=0;fontFamily=Alegreya;" parent="1" vertex="1">
                    <mxGeometry x="180" y="220" width="100" height="100" as="geometry"/>
                </mxCell>
                <mxCell id="34" value="Actor Lifeline" style="text;html=1;strokeColor=none;fillColor=none;align=center;verticalAlign=middle;whiteSpace=wrap;rounded=0;fontFamily=Alegreya;" parent="1" vertex="1">
                    <mxGeometry x="80" y="150" width="60" height="30" as="geometry"/>
                </mxCell>
                <mxCell id="35" value="Lifeline" style="text;html=1;strokeColor=none;fillColor=none;align=center;verticalAlign=middle;whiteSpace=wrap;rounded=0;fontFamily=Alegreya;" parent="1" vertex="1">
                    <mxGeometry x="200" y="150" width="60" height="30" as="geometry"/>
                </mxCell>
                <mxCell id="36" value="Synchronous &lt;br&gt;Invocation" style="text;html=1;strokeColor=none;fillColor=none;align=center;verticalAlign=middle;whiteSpace=wrap;rounded=0;fontFamily=Alegreya;" parent="1" vertex="1">
                    <mxGeometry x="479" y="140" width="140" height="40" as="geometry"/>
                </mxCell>
                <mxCell id="38" value="getLength()" style="html=1;verticalAlign=bottom;endArrow=block;entryX=0;entryY=0;fontFamily=Alegreya;" parent="1" source="43" target="37" edge="1">
                    <mxGeometry relative="1" as="geometry">
                        <mxPoint x="155" y="550" as="sourcePoint"/>
                    </mxGeometry>
                </mxCell>
                <mxCell id="39" value="3" style="html=1;verticalAlign=bottom;endArrow=open;dashed=1;endSize=8;exitX=0;exitY=0.95;fontFamily=Alegreya;" parent="1" source="37" target="43" edge="1">
                    <mxGeometry relative="1" as="geometry">
                        <mxPoint x="140" y="586" as="targetPoint"/>
                    </mxGeometry>
                </mxCell>
                <mxCell id="41" value="" style="html=1;points=[];perimeter=orthogonalPerimeter;fontFamily=Alegreya;" parent="1" vertex="1">
                    <mxGeometry x="685" y="220" width="10" height="80" as="geometry"/>
                </mxCell>
                <mxCell id="60" value="getLength()" style="html=1;verticalAlign=bottom;endArrow=block;entryX=0;entryY=0;fontFamily=Alegreya;" parent="1" source="37" target="59" edge="1">
                    <mxGeometry relative="1" as="geometry">
                        <mxPoint x="302" y="500" as="sourcePoint"/>
                    </mxGeometry>
                </mxCell>
                <mxCell id="61" value="3" style="html=1;verticalAlign=bottom;endArrow=open;dashed=1;endSize=8;exitX=0;exitY=0.95;fontFamily=Alegreya;" parent="1" source="59" target="37" edge="1">
                    <mxGeometry relative="1" as="geometry">
                        <mxPoint x="302" y="576" as="targetPoint"/>
                    </mxGeometry>
                </mxCell>
                <mxCell id="63" value="getLength()" style="html=1;verticalAlign=bottom;endArrow=block;entryX=0;entryY=0;fontFamily=Alegreya;" parent="1" source="59" target="62" edge="1">
                    <mxGeometry relative="1" as="geometry">
                        <mxPoint x="430" y="506" as="sourcePoint"/>
                    </mxGeometry>
                </mxCell>
                <mxCell id="64" value="2" style="html=1;verticalAlign=bottom;endArrow=open;dashed=1;endSize=8;exitX=0;exitY=0.95;fontFamily=Alegreya;" parent="1" source="62" target="59" edge="1">
                    <mxGeometry x="0.0011" relative="1" as="geometry">
                        <mxPoint x="430" y="582" as="targetPoint"/>
                        <mxPoint as="offset"/>
                    </mxGeometry>
                </mxCell>
                <mxCell id="66" value="getLength()" style="html=1;verticalAlign=bottom;endArrow=block;entryX=0;entryY=0;fontFamily=Alegreya;" parent="1" source="62" target="65" edge="1">
                    <mxGeometry relative="1" as="geometry">
                        <mxPoint x="570" y="516" as="sourcePoint"/>
                    </mxGeometry>
                </mxCell>
                <mxCell id="67" value="1" style="html=1;verticalAlign=bottom;endArrow=open;dashed=1;endSize=8;exitX=0;exitY=0.95;fontFamily=Alegreya;" parent="1" source="65" target="62" edge="1">
                    <mxGeometry relative="1" as="geometry">
                        <mxPoint x="570" y="592" as="targetPoint"/>
                    </mxGeometry>
                </mxCell>
                <mxCell id="68" value="Activation" style="text;html=1;strokeColor=none;fillColor=none;align=center;verticalAlign=middle;whiteSpace=wrap;rounded=0;fontFamily=Alegreya;" parent="1" vertex="1">
                    <mxGeometry x="620" y="160" width="140" height="40" as="geometry"/>
                </mxCell>
                <mxCell id="70" value="&lt;font face=&quot;Alegreya Sans&quot;&gt;Sequenzdiagramm&lt;/font&gt;" style="text;strokeColor=none;fillColor=none;html=1;fontSize=24;fontStyle=1;verticalAlign=middle;align=center;" parent="1" vertex="1">
                    <mxGeometry x="-780" y="30" width="220" height="40" as="geometry"/>
                </mxCell>
                <mxCell id="93" value="list: List" style="shape=umlLifeline;perimeter=lifelinePerimeter;whiteSpace=wrap;html=1;container=1;collapsible=0;recursiveResize=0;outlineConnect=0;fontFamily=Alegreya;" parent="1" vertex="1">
                    <mxGeometry x="173" y="810" width="95" height="304" as="geometry"/>
                </mxCell>
                <mxCell id="94" value="" style="html=1;points=[];perimeter=orthogonalPerimeter;fontFamily=Alegreya;" parent="93" vertex="1">
                    <mxGeometry x="42.5" y="74" width="10" height="180" as="geometry"/>
                </mxCell>
                <mxCell id="95" value="node1: InnerNode" style="shape=umlLifeline;perimeter=lifelinePerimeter;whiteSpace=wrap;html=1;container=1;collapsible=0;recursiveResize=0;outlineConnect=0;fontFamily=Alegreya;" parent="1" vertex="1">
                    <mxGeometry x="298" y="810" width="100" height="300" as="geometry"/>
                </mxCell>
                <mxCell id="96" value="" style="html=1;points=[];perimeter=orthogonalPerimeter;fontFamily=Alegreya;" parent="95" vertex="1">
                    <mxGeometry x="45" y="90" width="10" height="150" as="geometry"/>
                </mxCell>
                <mxCell id="97" value="node2: InnerNode" style="shape=umlLifeline;perimeter=lifelinePerimeter;whiteSpace=wrap;html=1;container=1;collapsible=0;recursiveResize=0;outlineConnect=0;fontFamily=Alegreya;" parent="1" vertex="1">
                    <mxGeometry x="437" y="810" width="100" height="300" as="geometry"/>
                </mxCell>
                <mxCell id="98" value="" style="html=1;points=[];perimeter=orthogonalPerimeter;fontFamily=Alegreya;" parent="97" vertex="1">
                    <mxGeometry x="45" y="110" width="10" height="110" as="geometry"/>
                </mxCell>
                <mxCell id="99" value="node3: InnerNode" style="shape=umlLifeline;perimeter=lifelinePerimeter;whiteSpace=wrap;html=1;container=1;collapsible=0;recursiveResize=0;outlineConnect=0;fontFamily=Alegreya;" parent="1" vertex="1">
                    <mxGeometry x="568" y="810" width="100" height="300" as="geometry"/>
                </mxCell>
                <mxCell id="100" value="" style="html=1;points=[];perimeter=orthogonalPerimeter;fontFamily=Alegreya;" parent="99" vertex="1">
                    <mxGeometry x="45" y="130" width="10" height="70" as="geometry"/>
                </mxCell>
                <mxCell id="101" value="" style="shape=umlLifeline;participant=umlActor;perimeter=lifelinePerimeter;whiteSpace=wrap;html=1;container=1;collapsible=0;recursiveResize=0;verticalAlign=top;spacingTop=36;outlineConnect=0;" parent="1" vertex="1">
                    <mxGeometry x="110" y="810" width="20" height="300" as="geometry"/>
                </mxCell>
                <mxCell id="102" value="" style="html=1;points=[];perimeter=orthogonalPerimeter;" parent="101" vertex="1">
                    <mxGeometry x="5" y="60" width="10" height="210" as="geometry"/>
                </mxCell>
                <mxCell id="103" value="x()" style="html=1;verticalAlign=bottom;endArrow=block;entryX=0;entryY=0;fontFamily=Alegreya;" parent="1" source="102" target="94" edge="1">
                    <mxGeometry relative="1" as="geometry">
                        <mxPoint x="93" y="980" as="sourcePoint"/>
                    </mxGeometry>
                </mxCell>
                <mxCell id="104" value="node1" style="html=1;verticalAlign=bottom;endArrow=open;dashed=1;endSize=8;exitX=0;exitY=0.95;fontFamily=Alegreya;" parent="1" source="94" target="102" edge="1">
                    <mxGeometry relative="1" as="geometry">
                        <mxPoint x="78" y="1016" as="targetPoint"/>
                    </mxGeometry>
                </mxCell>
                <mxCell id="105" value="x(0)" style="html=1;verticalAlign=bottom;endArrow=block;entryX=0;entryY=0;fontFamily=Alegreya;" parent="1" source="94" target="96" edge="1">
                    <mxGeometry relative="1" as="geometry">
                        <mxPoint x="240" y="930" as="sourcePoint"/>
                    </mxGeometry>
                </mxCell>
                <mxCell id="106" value="node1" style="html=1;verticalAlign=bottom;endArrow=open;dashed=1;endSize=8;exitX=0;exitY=0.95;fontFamily=Alegreya;" parent="1" edge="1">
                    <mxGeometry relative="1" as="geometry">
                        <mxPoint x="225.5" y="1049.5" as="targetPoint"/>
                        <mxPoint x="343" y="1049.5" as="sourcePoint"/>
                    </mxGeometry>
                </mxCell>
                <mxCell id="107" value="leaf" style="html=1;verticalAlign=bottom;endArrow=open;dashed=1;endSize=8;exitX=0;exitY=0.95;fontFamily=Alegreya;" parent="1" edge="1">
                    <mxGeometry x="0.0011" relative="1" as="geometry">
                        <mxPoint x="353" y="1029.5000000000002" as="targetPoint"/>
                        <mxPoint as="offset"/>
                        <mxPoint x="482" y="1029.5000000000002" as="sourcePoint"/>
                    </mxGeometry>
                </mxCell>
                <mxCell id="108" value="x(7)" style="html=1;verticalAlign=bottom;endArrow=block;entryX=0;entryY=0;fontFamily=Alegreya;" parent="1" source="98" target="100" edge="1">
                    <mxGeometry relative="1" as="geometry">
                        <mxPoint x="508" y="946" as="sourcePoint"/>
                    </mxGeometry>
                </mxCell>
                <mxCell id="109" value="leaf" style="html=1;verticalAlign=bottom;endArrow=open;dashed=1;endSize=8;exitX=0;exitY=0.95;fontFamily=Alegreya;" parent="1" edge="1">
                    <mxGeometry relative="1" as="geometry">
                        <mxPoint x="492" y="1009.5" as="targetPoint"/>
                        <mxPoint x="613" y="1009.5" as="sourcePoint"/>
                    </mxGeometry>
                </mxCell>
                <mxCell id="110" value="leaf: LeafNode" style="shape=umlLifeline;perimeter=lifelinePerimeter;whiteSpace=wrap;html=1;container=1;collapsible=0;recursiveResize=0;outlineConnect=0;fontFamily=Alegreya;" parent="1" vertex="1">
                    <mxGeometry x="698" y="810" width="100" height="300" as="geometry"/>
                </mxCell>
                <mxCell id="111" value="" style="html=1;points=[];perimeter=orthogonalPerimeter;fontFamily=Alegreya;" parent="110" vertex="1">
                    <mxGeometry x="45" y="140" width="10" height="50" as="geometry"/>
                </mxCell>
                <mxCell id="112" value="x(7)" style="html=1;verticalAlign=bottom;endArrow=block;fontFamily=Alegreya;exitX=1.1;exitY=0.2;exitDx=0;exitDy=0;exitPerimeter=0;" parent="1" edge="1">
                    <mxGeometry relative="1" as="geometry">
                        <mxPoint x="354" y="921" as="sourcePoint"/>
                        <mxPoint x="481" y="921" as="targetPoint"/>
                    </mxGeometry>
                </mxCell>
                <mxCell id="113" value="x(7)" style="html=1;verticalAlign=bottom;endArrow=block;entryX=-0.117;entryY=0.018;fontFamily=Alegreya;entryDx=0;entryDy=0;entryPerimeter=0;exitX=0.976;exitY=0.146;exitDx=0;exitDy=0;exitPerimeter=0;" parent="1" source="100" target="111" edge="1">
                    <mxGeometry relative="1" as="geometry">
                        <mxPoint x="624" y="951" as="sourcePoint"/>
                        <mxPoint x="753.5999999999999" y="951.2" as="targetPoint"/>
                    </mxGeometry>
                </mxCell>
                <mxCell id="114" value="leaf" style="html=1;verticalAlign=bottom;endArrow=open;dashed=1;endSize=8;exitX=-0.09;exitY=0.983;fontFamily=Alegreya;exitDx=0;exitDy=0;exitPerimeter=0;entryX=1.045;entryY=0.875;entryDx=0;entryDy=0;entryPerimeter=0;" parent="1" source="111" target="100" edge="1">
                    <mxGeometry relative="1" as="geometry">
                        <mxPoint x="621" y="1000" as="targetPoint"/>
                        <mxPoint x="744" y="1000" as="sourcePoint"/>
                    </mxGeometry>
                </mxCell>
                <mxCell id="115" value="Lebenslinie" style="text;html=1;strokeColor=none;fillColor=none;align=center;verticalAlign=middle;whiteSpace=wrap;rounded=0;fontFamily=Alegreya;" parent="1" vertex="1">
                    <mxGeometry x="200" y="110" width="60" height="30" as="geometry"/>
                </mxCell>
                <mxCell id="116" value="Aktivitätsbalken" style="text;html=1;strokeColor=none;fillColor=none;align=center;verticalAlign=middle;whiteSpace=wrap;rounded=0;fontFamily=Alegreya;" parent="1" vertex="1">
                    <mxGeometry x="620" y="115" width="140" height="40" as="geometry"/>
                </mxCell>
                <mxCell id="117" value="synchron()" style="html=1;verticalAlign=bottom;endArrow=block;entryX=0;entryY=0;fontFamily=Alegreya;" parent="1" edge="1">
                    <mxGeometry relative="1" as="geometry">
                        <mxPoint x="350" y="199" as="sourcePoint"/>
                        <mxPoint x="420" y="199" as="targetPoint"/>
                    </mxGeometry>
                </mxCell>
                <mxCell id="118" value="Methodenaufruf" style="text;html=1;strokeColor=none;fillColor=none;align=center;verticalAlign=middle;whiteSpace=wrap;rounded=0;fontFamily=Alegreya;" parent="1" vertex="1">
                    <mxGeometry x="320" y="130" width="140" height="40" as="geometry"/>
                </mxCell>
                <mxCell id="119" value="return" style="html=1;verticalAlign=bottom;endArrow=open;dashed=1;endSize=8;exitX=0;exitY=0.95;fontFamily=Alegreya;" parent="1" edge="1">
                    <mxGeometry relative="1" as="geometry">
                        <mxPoint x="350" y="290" as="targetPoint"/>
                        <mxPoint x="420" y="290" as="sourcePoint"/>
                    </mxGeometry>
                </mxCell>
                <mxCell id="120" value="Rückgabewert" style="text;html=1;strokeColor=none;fillColor=none;align=center;verticalAlign=middle;whiteSpace=wrap;rounded=0;fontFamily=Alegreya;" parent="1" vertex="1">
                    <mxGeometry x="320" y="230" width="140" height="40" as="geometry"/>
                </mxCell>
                <mxCell id="121" value="Klett Informatik 3 2008 Seite 121-125" style="text;html=1;strokeColor=none;fillColor=none;align=center;verticalAlign=middle;whiteSpace=wrap;rounded=0;fontFamily=Alegreya;" parent="1" vertex="1">
                    <mxGeometry x="88" y="20" width="231" height="30" as="geometry"/>
                </mxCell>
                <mxCell id="123" value="Synchroner &lt;br&gt;Aufruf" style="text;html=1;strokeColor=none;fillColor=none;align=center;verticalAlign=middle;whiteSpace=wrap;rounded=0;fontFamily=Alegreya;" parent="1" vertex="1">
                    <mxGeometry x="479" y="90" width="140" height="40" as="geometry"/>
                </mxCell>
                <mxCell id="124" value="asynchron()" style="html=1;verticalAlign=bottom;endArrow=open;entryX=0;entryY=0;fontFamily=Alegreya;endFill=0;" parent="1" edge="1">
                    <mxGeometry relative="1" as="geometry">
                        <mxPoint x="349" y="230" as="sourcePoint"/>
                        <mxPoint x="419.0000000000001" y="230" as="targetPoint"/>
                    </mxGeometry>
                </mxCell>
                <mxCell id="126" value="Rupp UML2 glasklar Seite 401-471" style="text;html=1;strokeColor=none;fillColor=none;align=center;verticalAlign=middle;whiteSpace=wrap;rounded=0;fontFamily=Alegreya;" parent="1" vertex="1">
                    <mxGeometry x="70" y="50" width="231" height="30" as="geometry"/>
                </mxCell>
            </root>
        </mxGraphModel>
    </diagram>
</mxfile>
